<svg xmlns="http://www.w3.org/2000/svg" viewBox="0 0 800 600" width="800" height="600">
  <!-- 背景 -->
  <rect width="800" height="600" fill="#e6f7f8" />
  
  <!-- 文档页面 -->
  <rect x="150" y="100" width="500" height="400" rx="10" fill="#ffffff" stroke="#00B0B9" stroke-width="3" />
  
  <!-- 文档标题 -->
  <rect x="200" y="130" width="400" height="40" rx="5" fill="#f1f1f1" />
  <text x="400" y="155" font-family="sans-serif" font-size="18" font-weight="bold" fill="#333333" text-anchor="middle">逸刻文化的创新之旅</text>
  
  <!-- 文档内容 -->
  <line x1="200" y1="200" x2="600" y2="200" stroke="#e0e0e0" stroke-width="2" />
  <line x1="200" y1="240" x2="600" y2="240" stroke="#e0e0e0" stroke-width="2" />
  <line x1="200" y1="280" x2="600" y2="280" stroke="#e0e0e0" stroke-width="2" />
  <line x1="200" y1="320" x2="600" y2="320" stroke="#e0e0e0" stroke-width="2" />
  <line x1="200" y1="360" x2="600" y2="360" stroke="#e0e0e0" stroke-width="2" />
  <line x1="200" y1="400" x2="600" y2="400" stroke="#e0e0e0" stroke-width="2" />
  <line x1="200" y1="440" x2="500" y2="440" stroke="#e0e0e0" stroke-width="2" />
  
  <!-- 文本内容示意 -->
  <rect x="200" y="190" width="380" height="10" rx="5" fill="#00B0B9" fill-opacity="0.2" />
  <rect x="200" y="210" width="350" height="10" rx="5" fill="#00B0B9" fill-opacity="0.2" />
  
  <rect x="200" y="230" width="390" height="10" rx="5" fill="#00B0B9" fill-opacity="0.2" />
  <rect x="200" y="250" width="370" height="10" rx="5" fill="#00B0B9" fill-opacity="0.2" />
  
  <rect x="200" y="270" width="400" height="10" rx="5" fill="#00B0B9" fill-opacity="0.2" />
  <rect x="200" y="290" width="360" height="10" rx="5" fill="#00B0B9" fill-opacity="0.2" />
  
  <rect x="200" y="310" width="385" height="10" rx="5" fill="#00B0B9" fill-opacity="0.2" />
  <rect x="200" y="330" width="375" height="10" rx="5" fill="#00B0B9" fill-opacity="0.2" />
  
  <rect x="200" y="350" width="395" height="10" rx="5" fill="#00B0B9" fill-opacity="0.2" />
  <rect x="200" y="370" width="355" height="10" rx="5" fill="#00B0B9" fill-opacity="0.2" />
  
  <rect x="200" y="390" width="380" height="10" rx="5" fill="#00B0B9" fill-opacity="0.2" />
  <rect x="200" y="410" width="340" height="10" rx="5" fill="#00B0B9" fill-opacity="0.2" />
  
  <rect x="200" y="430" width="300" height="10" rx="5" fill="#00B0B9" fill-opacity="0.2" />
  
  <!-- AI助手图标 -->
  <circle cx="700" cy="150" r="30" fill="#00B0B9" />
  <text x="700" y="155" font-family="sans-serif" font-size="20" fill="white" text-anchor="middle">AI</text>
  
  <!-- 连接线 -->
  <path d="M670,150 Q650,200 700,250" stroke="#00B0B9" stroke-width="2" fill="none" />
  
  <!-- AI建议框 -->
  <rect x="650" y="250" width="100" height="80" rx="10" fill="#ffffff" stroke="#00B0B9" stroke-width="2" />
  <text x="700" y="280" font-family="sans-serif" font-size="10" fill="#333333" text-anchor="middle">添加更多</text>
  <text x="700" y="295" font-family="sans-serif" font-size="10" fill="#333333" text-anchor="middle">个人感受</text>
  <text x="700" y="310" font-family="sans-serif" font-size="10" fill="#333333" text-anchor="middle">增强共鸣</text>
  
  <!-- 标题 -->
  <text x="400" y="70" font-family="sans-serif" font-size="24" font-weight="bold" fill="#00B0B9" text-anchor="middle">AI内容创作</text>
  
  <!-- 底部工具栏 -->
  <rect x="150" y="520" width="500" height="40" rx="5" fill="#f1f1f1" />
  
  <!-- 工具按钮 -->
  <circle cx="200" cy="540" r="15" fill="#00B0B9" fill-opacity="0.2" />
  <text x="200" y="545" font-family="sans-serif" font-size="12" fill="#00B0B9" text-anchor="middle">T</text>
  
  <circle cx="250" cy="540" r="15" fill="#00B0B9" fill-opacity="0.2" />
  <text x="250" y="545" font-family="sans-serif" font-size="12" fill="#00B0B9" text-anchor="middle">B</text>
  
  <circle cx="300" cy="540" r="15" fill="#00B0B9" fill-opacity="0.2" />
  <text x="300" y="545" font-family="sans-serif" font-size="12" fill="#00B0B9" text-anchor="middle">I</text>
  
  <rect x="350" y="530" width="200" height="20" rx="10" fill="#00B0B9" fill-opacity="0.2" />
  <text x="450" y="545" font-family="sans-serif" font-size="12" fill="#00B0B9" text-anchor="middle">AI优化建议</text>
</svg>